Coordinates
version=1
nRows=54
nColumns=12
inDegrees=yes

Units are S.I. units (second, meters, Newtons, ...)
Angles are in degrees

endheader
time	SC_y	SC_z	SC_x	AC_y	AC_z	AC_x	GH_y	GH_z	GH_yy	EL_x	PS_y
       0.0              -47.52            3.5           3.31          69.43         -11.62        -0.9155         -71.29         -14.45          162.7          81.98          67.24
   0.03652              -47.52          3.502          3.313          69.43         -11.62        -0.9154         -71.27         -14.44          162.7          81.98          67.23
   0.07305              -47.51          3.504          3.316          69.42         -11.61        -0.9153         -71.25         -14.43          162.6          81.98          67.23
    0.1096               -47.5          3.506           3.32          69.42         -11.61        -0.9152         -71.22         -14.42          162.6          81.98          67.22
    0.1461               -47.5          3.509          3.323          69.41         -11.61        -0.9151          -71.2         -14.41          162.6          81.97          67.21
    0.1826              -47.49          3.511          3.327           69.4         -11.61         -0.915         -71.17         -14.39          162.5          81.97           67.2
    0.2191              -47.48          3.514          3.332           69.4         -11.61        -0.9149         -71.14         -14.38          162.5          81.97           67.2
    0.2557              -47.48          3.517          3.336          69.39         -11.61        -0.9148         -71.11         -14.37          162.5          81.97          67.19
    0.2922              -47.47           3.52          3.341          69.38         -11.61        -0.9146         -71.08         -14.35          162.4          81.97          67.18
    0.3287              -47.46          3.523          3.346          69.37         -11.61        -0.9145         -71.04         -14.33          162.4          81.96          67.17
    0.3652              -47.45          3.527          3.351          69.36         -11.61        -0.9143          -71.0         -14.32          162.3          81.96          67.16
    0.4017              -47.44          3.531          3.357          69.35          -11.6        -0.9141         -70.96          -14.3          162.3          81.96          67.15
    0.4383              -47.43          3.535          3.364          69.34          -11.6        -0.9139         -70.91         -14.28          162.2          81.95          67.13
    0.4748              -47.42          3.539          3.371          69.33          -11.6        -0.9137         -70.87         -14.26          162.2          81.95          67.12
    0.5113              -47.41          3.544          3.378          69.32          -11.6        -0.9135         -70.81         -14.23          162.1          81.95          67.11
    0.5478              -47.39          3.549          3.386          69.31          -11.6        -0.9133         -70.76         -14.21          162.1          81.94          67.09
    0.5844              -47.38          3.555          3.395          69.29         -11.59         -0.913         -70.69         -14.18          162.0          81.94          67.07
    0.6209              -47.36          3.561          3.405          69.28         -11.59        -0.9128         -70.63         -14.15          161.9          81.94          67.05
    0.6574              -47.34          3.568          3.415          69.26         -11.59        -0.9124         -70.55         -14.12          161.8          81.93          67.03
    0.6939              -47.33          3.576          3.427          69.24         -11.58        -0.9121         -70.47         -14.08          161.7          81.93          67.01
    0.7305               -47.3          3.584          3.439          69.22         -11.58        -0.9117         -70.38         -14.04          161.6          81.92          66.99
     0.767              -47.28          3.593          3.453           69.2         -11.58        -0.9113         -70.28          -14.0          161.5          81.91          66.96
    0.8035              -47.26          3.603          3.468          69.17         -11.57        -0.9109         -70.18         -13.95          161.4          81.91          66.93
      0.84              -47.23          3.614          3.485          69.14         -11.57        -0.9104         -70.06         -13.89          161.2           81.9           66.9
    0.8765               -47.2          3.626          3.504          69.11         -11.56        -0.9098         -69.92         -13.84          161.1          81.89          66.86
    0.9131              -47.16           3.64          3.525          69.08         -11.56        -0.9092         -69.78         -13.77          160.9          81.88          66.82
    0.9496              -47.12          3.655          3.549          69.04         -11.55        -0.9085         -69.61         -13.69          160.7          81.87          66.77
    0.9861              -47.08          3.672          3.575           69.0         -11.54        -0.9078         -69.42         -13.61          160.5          81.86          66.72
     1.023              -47.03          3.692          3.605          68.95         -11.54        -0.9069         -69.21         -13.52          160.2          81.84          66.66
     1.059              -46.97          3.714          3.639          68.89         -11.53        -0.9059         -68.97         -13.41          159.9          81.83           66.6
     1.096               -46.9          3.739          3.678          68.83         -11.52        -0.9048          -68.7         -13.29          159.6          81.81          66.52
     1.132              -46.83          3.768          3.722          68.76          -11.5        -0.9035         -68.38         -13.15          159.2          81.79          66.43
     1.169              -46.74          3.801          3.774          68.67         -11.49         -0.902         -68.02         -12.98          158.8          81.77          66.33
     1.205              -46.64           3.84          3.833          68.58         -11.47        -0.9002          -67.6         -12.79          158.3          81.74          66.22
     1.242              -46.53          3.886          3.903          68.46         -11.45        -0.8982         -67.11         -12.57          157.7          81.71          66.08
     1.278              -46.39          3.939          3.986          68.33         -11.43        -0.8958         -66.52         -12.31          157.0          81.67          65.92
     1.315              -46.23          4.003          4.084          68.17          -11.4        -0.8929         -65.83          -12.0          156.2          81.62          65.73
     1.351              -46.03          4.079          4.201          67.97         -11.37        -0.8895          -65.0         -11.63          155.2          81.57           65.5
     1.388              -45.79          4.172          4.343          67.74         -11.33        -0.8853          -64.0         -11.19          154.0           81.5          65.22
     1.424               -45.5          4.284          4.516          67.46         -11.29        -0.8802         -62.78         -10.64          152.6          81.42          64.88
     1.461              -45.14          4.423          4.731          67.11         -11.23         -0.874         -61.27         -9.961          150.8          81.32          64.47
     1.497               -44.7          4.597          4.997          66.67         -11.15        -0.8662         -59.38         -9.118          148.6           81.2          63.94
     1.534              -44.13          4.816          5.334          66.12         -11.06        -0.8563         -57.01         -8.056          145.7          81.05          63.29
      1.57              -43.42          5.093          5.761          65.42         -10.94        -0.8438         -53.99         -6.706          142.1          80.85          62.45
     1.607               -42.5          5.449          6.308          64.53         -10.79        -0.8278         -50.13         -4.978          137.6           80.6          61.38
     1.644              -41.32          5.906          7.011          63.38          -10.6        -0.8073         -45.17          -2.76          131.7          80.27          60.01
      1.68              -39.82          6.489          7.907          61.91         -10.36        -0.7811         -38.84        0.07282          124.2          79.86          58.26
     1.717              -37.94          7.222          9.035          60.07         -10.05        -0.7481         -30.88          3.635          114.7          79.34          56.06
     1.753              -35.63          8.115          10.41          57.82         -9.671        -0.7079         -21.18          7.975          103.2          78.71          53.38
      1.79              -32.97          9.151           12.0          55.22         -9.234        -0.6613         -9.936          13.01          89.84          77.97          50.27
     1.826              -30.08          10.27          13.73           52.4         -8.762        -0.6109          2.239          18.45          75.38          77.18           46.9
     1.863              -27.19          11.39          15.45          49.58         -8.289        -0.5605          14.41           23.9          60.93          76.38          43.53
     1.899              -24.52          12.43          17.05          46.97         -7.852        -0.5139          25.66          28.93          47.58          75.65          40.42
     1.936              -22.22          13.32          18.42          44.72         -7.476        -0.4737          35.36          33.27          36.06          75.01          37.74
